<svg xmlns="http://www.w3.org/2000/svg" width="590" height="98.995">
  <path d="M588.411 56.94c0 21.75-17.633 39.38-39.379 39.38-21.751 0-39.382-17.633-39.382-39.38 0-21.75 17.633-39.38 39.382-39.38 21.746-.003 39.38 17.63 39.38 39.38m-39.38-19.734a19.735 19.735 0 100 39.468 19.735 19.735 0 000-39.468M379.95 56.962c0 21.75-17.63 39.375-39.375 39.375-21.749 0-39.374-17.628-39.374-39.375s17.628-39.376 39.374-39.376c21.747.002 39.375 17.632 39.375 39.376m-39.375-19.728a19.73 19.73 0 100 39.461 19.73 19.73 0 000-39.46M192.042 17.558c-4.047 0-7.517 2.04-9.041 5.791a39.142 39.142 0 00-20.484-5.79c-21.759 0-39.399 17.64-39.399 39.398 0 21.76 17.64 39.4 39.399 39.4 7.51 0 14.503-2.14 20.477-5.784 1.519 3.752 4.994 5.784 9.048 5.784 5.452 0 9.873-3.662 9.873-10.274V27.86c0-6.612-4.42-10.3-9.873-10.3M162.517 76.7a19.745 19.745 0 010-39.485c10.296 0 18.744 7.887 19.651 17.947v3.588c-.907 10.064-9.355 17.95-19.651 17.95m131.901-14.29a9.794 9.794 0 00-9.801-9.792 9.794 9.794 0 00-9.797 9.792 14.354 14.354 0 01-14.335 14.336 14.352 14.352 0 01-14.333-14.336l-.005-.024V37.24h23.146c5.412 0 9.794-4.442 9.794-9.85 0-5.409-4.382-9.827-9.794-9.827h-23.196v-6.696a9.802 9.802 0 00-19.599 0v6.753h-7.936a9.802 9.802 0 00-9.8 9.797 9.8 9.8 0 009.8 9.797h7.936l-.079 25.197c0 18.63 15.749 33.93 34.066 33.93 18.71 0 33.933-15.222 33.933-33.93m208.448 24.07V51.073h-.022c-.228-18.516-15.34-33.511-33.907-33.511a33.802 33.802 0 00-24.166 10.152c-6.151-6.245-14.664-10.152-24.113-10.152-18.564 0-33.676 14.995-33.907 33.51h-.021V86.48a9.794 9.794 0 0019.588 0V51.486h.005a14.352 14.352 0 0114.335-14.328c7.908 0 14.343 6.432 14.343 14.328h.007l-.002 34.648c0 5.405 4.49 10.186 9.9 10.186s9.674-4.78 9.674-10.186l.02-34.648h.004a14.352 14.352 0 0114.335-14.328 14.352 14.352 0 0114.333 14.328h.007V86.48a9.793 9.793 0 1019.587 0m-386.53-.029V51.044h-.022c-.228-18.516-15.34-33.511-33.907-33.511-9.456 0-18.012 3.893-24.168 10.152-6.149-6.245-14.664-10.152-24.11-10.152-18.567 0-33.68 14.995-33.907 33.511H.2v35.407a9.794 9.794 0 0019.589 0V51.454h.005a14.352 14.352 0 0114.335-14.328c7.908 0 14.34 6.432 14.34 14.328h.007l-.002 34.647c0 5.405 4.49 10.188 9.9 10.188s9.674-4.783 9.674-10.188l.02-34.647h.004a14.352 14.352 0 0114.335-14.328A14.352 14.352 0 0196.74 51.454h.005V86.45a9.797 9.797 0 0019.591.002"/>
</svg>
